<?xml version="1.0" encoding="utf-8"?>
<!-- Generator: Adobe Illustrator 16.0.3, SVG Export Plug-In . SVG Version: 6.00 Build 0)  -->
<!DOCTYPE svg PUBLIC "-//W3C//DTD SVG 1.1//EN" "http://www.w3.org/Graphics/SVG/1.1/DTD/svg11.dtd">
<svg xmlns="http://www.w3.org/2000/svg" xmlns:xlink="http://www.w3.org/1999/xlink" version="1.1" id="Warstwa_1" x="0px" y="0px" width="650px" height="300px" viewBox="0 0 650 300" xml:space="preserve">
<polyline fill="#3395E0" points="0,300 0,0 650,0 650,300 "/>
<g opacity="0.5">
	<rect x="251.671" y="160.735" fill="#FFFFFF" width="6.066" height="6.104"/>
</g>
<g opacity="0.5">
	<rect x="239.538" y="160.735" fill="#FFFFFF" width="6.065" height="6.104"/>
</g>
<g opacity="0.5">
	<rect x="401.94" y="107.499" fill="#FFFFFF" width="6.104" height="6.103"/>
</g>
<g opacity="0.5">
	<rect x="414.145" y="107.499" fill="#FFFFFF" width="6.104" height="6.103"/>
</g>
<g opacity="0.5">
	<rect x="257.157" y="227.8" fill="#FFFFFF" width="37.299" height="6.103"/>
</g>
<g>
	<g>
		<polygon fill="#FFFFFF" points="226.077,198.812 222.077,192.812 226.077,190.812 230.077,192.812 234.077,190.812     238.077,192.812 234.077,198.812   "/>
	</g>
	<g>
		<path fill="#FFFFFF" d="M234.077,202.812c0,0,7,3,10,6s6,13,6,31c0,3-2.238,5-5,5h-30c-2.762,0-5-2-5-5c0-18,3-28,6-31s10-6,10-6    H234.077z"/>
	</g>
	<g>
		<path fill="#4D5152" d="M245.077,245.812h-30c-3.42,0-6-2.58-6-6c0-18.738,3.252-28.666,6.293-31.707    c3.102-3.102,10.021-6.088,10.313-6.213l0.787,1.838c-0.068,0.029-6.859,2.961-9.686,5.789    c-2.635,2.633-5.707,12.146-5.707,30.293c0,2.316,1.682,4,4,4h30c2.316,0,4-1.684,4-4c0-18.146-3.074-27.66-5.707-30.293    c-2.832-2.832-9.619-5.76-9.688-5.789l0.787-1.838c0.293,0.125,7.213,3.111,10.313,6.213c3.043,3.041,6.293,12.969,6.293,31.707    C251.077,243.231,248.499,245.812,245.077,245.812z"/>
	</g>
	<g>
		<rect x="226.077" y="198.812" fill="#FFB957" width="8" height="4"/>
	</g>
	<g>
		<path fill="#4D5152" d="M235.077,203.812h-10v-6h10V203.812z M227.077,201.812h6v-2h-6V201.812z"/>
	</g>
	<g>
		<polygon fill="#4D5152" points="234.909,199.366 233.245,198.257 236.618,193.198 234.077,191.929 230.077,193.929     226.077,191.929 223.538,193.198 226.909,198.257 225.245,199.366 220.618,192.423 226.077,189.692 230.077,191.692     234.077,189.692 239.538,192.423   "/>
	</g>
	<g>
		<circle fill="#67DDE0" cx="230.077" cy="219.812" r="12"/>
	</g>
	<g>
		<g>
			<g>
				<rect x="206.297" y="240.812" fill="#FFB957" width="10" height="4"/>
			</g>
			<g>
				<path fill="#4D5152" d="M217.297,245.812h-12v-6h12V245.812z M207.297,243.812h8v-2h-8V243.812z"/>
			</g>
		</g>
		<g>
			<g>
				<polygon fill="#4D5152" points="217.297,224.812 215.297,224.812 215.297,221.812 207.297,221.812 207.297,224.812       205.297,224.812 205.297,219.812 217.297,219.812     "/>
			</g>
			<g>
				<rect x="207.297" y="221.812" fill="#FFB957" width="8" height="2"/>
			</g>
		</g>
		<g>
			<g>
				<polygon fill="#4D5152" points="217.297,228.812 215.297,228.812 215.297,225.812 207.297,225.812 207.297,228.812       205.297,228.812 205.297,223.812 217.297,223.812     "/>
			</g>
			<g>
				<rect x="207.297" y="225.812" fill="#FFB957" width="8" height="2"/>
			</g>
		</g>
		<g>
			<g>
				<polygon fill="#4D5152" points="217.297,232.812 215.297,232.812 215.297,229.812 207.297,229.812 207.297,232.812       205.297,232.812 205.297,227.812 217.297,227.812     "/>
			</g>
			<g>
				<rect x="207.297" y="229.812" fill="#FFB957" width="8" height="2"/>
			</g>
		</g>
		<g>
			<g>
				<polygon fill="#4D5152" points="217.297,236.812 215.297,236.812 215.297,233.812 207.297,233.812 207.297,236.812       205.297,236.812 205.297,231.812 217.297,231.812     "/>
			</g>
			<g>
				<rect x="207.297" y="233.812" fill="#FFB957" width="8" height="2"/>
			</g>
		</g>
		<g>
			<g>
				<polygon fill="#4D5152" points="217.297,240.812 215.297,240.812 215.297,237.812 207.297,237.812 207.297,240.812       205.297,240.812 205.297,235.812 217.297,235.812     "/>
			</g>
			<g>
				<rect x="207.297" y="237.812" fill="#FFB957" width="8" height="2"/>
			</g>
		</g>
		<g>
			<g>
				<rect x="196.297" y="240.812" fill="#FFB957" width="9" height="4"/>
			</g>
			<g>
				<polygon fill="#4D5152" points="206.297,245.812 195.297,245.812 195.297,239.812 206.297,239.812 206.297,241.812       197.297,241.812 197.297,243.812 206.297,243.812     "/>
			</g>
		</g>
		<g>
			<g>
				<polygon fill="#4D5152" points="197.297,232.812 195.297,232.812 195.297,227.812 206.297,227.812 206.297,229.812       197.297,229.812     "/>
			</g>
			<g>
				<rect x="197.297" y="229.812" fill="#FFB957" width="8" height="2"/>
			</g>
		</g>
		<g>
			<g>
				<polygon fill="#4D5152" points="197.297,236.812 195.297,236.812 195.297,231.812 206.297,231.812 206.297,233.812       197.297,233.812     "/>
			</g>
			<g>
				<rect x="197.297" y="233.812" fill="#FFB957" width="8" height="2"/>
			</g>
		</g>
		<g>
			<g>
				<polygon fill="#4D5152" points="197.297,240.812 195.297,240.812 195.297,235.812 206.297,235.812 206.297,237.812       197.297,237.812     "/>
			</g>
			<g>
				<rect x="197.297" y="237.812" fill="#FFB957" width="8" height="2"/>
			</g>
		</g>
		<g>
			<g>
				<rect x="186.297" y="240.812" fill="#FFB957" width="9" height="4"/>
			</g>
			<g>
				<polygon fill="#4D5152" points="196.297,245.812 185.297,245.812 185.297,239.812 196.297,239.812 196.297,241.812       187.297,241.812 187.297,243.812 196.297,243.812     "/>
			</g>
		</g>
		<g>
			<g>
				<polygon fill="#4D5152" points="187.297,240.812 185.297,240.812 185.297,235.812 196.297,235.812 196.297,237.812       187.297,237.812     "/>
			</g>
			<g>
				<rect x="187.297" y="237.812" fill="#FFB957" width="8" height="2"/>
			</g>
		</g>
	</g>
	<g>
		<path fill="#4D5152" d="M230.077,220.812c-2.205,0-4-1.795-4-4c0-2.207,1.795-4,4-4c2.207,0,4,1.793,4,4h-2c0-1.104-0.896-2-2-2    s-2,0.896-2,2s0.896,2,2,2V220.812z"/>
	</g>
	<g>
		<path fill="#4D5152" d="M230.077,226.812c-2.205,0-4-1.795-4-4h2c0,1.104,0.896,2,2,2s2-0.896,2-2s-0.896-2-2-2v-2    c2.207,0,4,1.793,4,4C234.077,225.017,232.284,226.812,230.077,226.812z"/>
	</g>
	<g>
		<rect x="229.077" y="211.812" fill="#4D5152" width="2" height="1"/>
	</g>
	<g>
		<rect x="229.077" y="226.812" fill="#4D5152" width="2" height="1"/>
	</g>
	<g>
		<rect x="236.077" y="218.812" fill="#4D5152" width="2" height="2"/>
	</g>
	<g>
		<rect x="222.077" y="218.812" fill="#4D5152" width="2" height="2"/>
	</g>
</g>
<g>
	<g id="XMLID_562_">
		
			<rect x="407.433" y="128.368" transform="matrix(1 0.0061 -0.0061 1 0.8039 -2.4701)" fill="#414042" width="1.37" height="6.178"/>
	</g>
	<g id="XMLID_568_">
		
			<rect x="418.749" y="132.985" transform="matrix(0.7008 0.7133 -0.7133 0.7008 222.5382 -258.4806)" fill="#414042" width="1.371" height="6.178"/>
	</g>
	<g id="XMLID_570_">
		
			<rect x="418.9" y="133.529" transform="matrix(0.7152 0.6989 -0.6989 0.7152 213.7452 -256.1082)" fill="#414042" width="4.443" height="1.371"/>
	</g>
	<g id="XMLID_571_">
		
			<rect x="394.86" y="132.001" transform="matrix(0.699 0.7151 -0.7151 0.699 215.0208 -242.4509)" fill="#414042" width="1.37" height="4.443"/>
	</g>
	<g id="XMLID_569_">
		
			<rect x="394.306" y="135.391" transform="matrix(0.7136 0.7005 -0.7005 0.7136 209.1232 -239.4146)" fill="#414042" width="6.178" height="1.37"/>
	</g>
	<circle id="XMLID_546_" fill="#FFFFFF" cx="408.043" cy="147.496" r="15.908"/>
	<path id="XMLID_560_" fill="#ACF0F2" d="M408.043,131.586c8.785,0,15.91,7.122,15.91,15.91h-15.91V131.586z"/>
	<circle id="XMLID_547_" fill="#414042" cx="408.021" cy="134.332" r="0.715"/>
	<circle id="XMLID_548_" fill="#414042" cx="414.599" cy="136.08" r="0.716"/>
	<circle id="XMLID_549_" fill="#414042" cx="419.425" cy="140.881" r="0.716"/>
	<circle id="XMLID_550_" fill="#414042" cx="421.208" cy="147.45" r="0.716"/>
	<circle id="XMLID_551_" fill="#414042" cx="419.472" cy="154.032" r="0.714"/>
	<circle id="XMLID_552_" fill="#414042" cx="414.679" cy="158.865" r="0.715"/>
	<circle id="XMLID_553_" fill="#414042" cx="408.112" cy="160.659" r="0.716"/>
	<circle id="XMLID_554_" fill="#414042" cx="401.527" cy="158.933" r="0.715"/>
	<circle id="XMLID_555_" fill="#414042" cx="396.685" cy="154.15" r="0.715"/>
	<circle id="XMLID_556_" fill="#414042" cx="394.879" cy="147.585" r="0.716"/>
	<circle id="XMLID_557_" fill="#414042" cx="396.594" cy="141" r="0.715"/>
	<circle id="XMLID_558_" fill="#414042" cx="401.37" cy="136.148" r="0.715"/>
	<rect id="XMLID_563_" x="405.468" y="126.841" fill="#E6E7E8" width="5.324" height="2.043"/>
	<g id="XMLID_559_">
		<path fill="#414042" d="M411.477,129.569h-6.693v-3.413h6.693V129.569z M406.153,128.2h3.953v-0.673h-3.953V128.2z"/>
	</g>
	<circle id="XMLID_565_" fill="#A7A9AC" cx="408.021" cy="147.449" r="1.628"/>
	<g id="XMLID_564_">
		<path fill="#414042" d="M408.021,149.765c-1.275,0-2.313-1.04-2.313-2.315c0-1.275,1.037-2.315,2.313-2.315    c1.275,0,2.313,1.039,2.313,2.315C410.333,148.725,409.296,149.765,408.021,149.765z M408.021,146.506    c-0.519,0-0.944,0.423-0.944,0.943c0,0.521,0.424,0.944,0.944,0.944s0.943-0.422,0.943-0.944    C408.964,146.93,408.541,146.506,408.021,146.506z"/>
	</g>
	<g id="XMLID_567_">
		<rect x="409.648" y="146.766" fill="#414042" width="7.986" height="1.37"/>
	</g>
	<g id="XMLID_107_">
		<path fill="#414042" d="M408.043,164.09c-9.148,0-16.594-7.444-16.594-16.594c0-9.151,7.443-16.595,16.594-16.595    c9.151,0,16.595,7.444,16.595,16.595C424.638,156.646,417.194,164.09,408.043,164.09z M408.043,132.271    c-8.394,0-15.224,6.83-15.224,15.224c0,8.393,6.83,15.223,15.224,15.223c8.396,0,15.225-6.83,15.225-15.223    C423.268,139.1,416.438,132.271,408.043,132.271z"/>
	</g>
</g>
<g>
	<g opacity="0.5">
		<polygon fill="#FFFFFF" points="312.642,130.155 318.709,130.155 318.709,215.594 257.157,215.594 257.157,209.492     312.642,209.492   "/>
	</g>
	<g opacity="0.5">
		<rect x="324.741" y="130.155" fill="#FFFFFF" width="6.105" height="91.542"/>
	</g>
	<g opacity="0.5">
		<polygon fill="#FFFFFF" points="355.806,151.516 349.706,151.516 349.706,197.285 380.218,197.285 380.218,191.183     355.806,191.183   "/>
	</g>
	<g opacity="0.5">
		<rect x="221.626" y="209.49" fill="#FFFFFF" width="6.067" height="6.104"/>
	</g>
	<g>
		<g>
			<g>
				<polygon fill="#FFFFFF" points="300.507,221.697 306.574,221.697 306.574,227.8 397.591,227.8 397.591,233.902 300.507,233.902           "/>
			</g>
			<g>
				<rect x="300.506" y="130.155" fill="#FFFFFF" width="6.068" height="73.234"/>
			</g>
			<g>
				<polygon fill="#FFFFFF" points="336.913,130.155 342.981,130.155 342.981,203.389 423.521,203.389 423.521,209.492       336.913,209.492     "/>
			</g>
		</g>
		<g>
			<path fill="#FFFFFF" d="M417.052,220.646l-4.291-4.316l9.988-10.047l-9.988-10.049l4.291-4.314l12.135,12.206     c1.184,1.192,1.184,3.122,0,4.315L417.052,220.646z"/>
		</g>
		<g>
			<path fill="#FFFFFF" d="M387.601,216.488l12.135,12.205c1.186,1.192,1.186,3.123,0,4.315l-12.135,12.205l-4.291-4.315     l9.99-10.047l-9.99-10.049L387.601,216.488z"/>
		</g>
	</g>
</g>
<g>
	<g>
		<g>
			<path fill="#E6E7E8" d="M375.739,103.315c0-2.299-1.867-4.165-4.162-4.165h-99.238c-2.295,0-4.163,1.866-4.163,4.165v71.715     h107.563V103.315z M370.12,167.771c0,0.516-0.418,0.933-0.932,0.933h-94.461c-0.516,0-0.933-0.417-0.933-0.933v-62.957     c0-0.516,0.417-0.932,0.933-0.932h94.463c0.514,0,0.932,0.416,0.932,0.932v62.957H370.12z"/>
			<path fill="#E6E7E8" d="M267.244,176.896h-7.344v4.162c0,2.295,2.212,4.162,4.931,4.162h114.254c2.719,0,4.93-1.867,4.93-4.162     v-4.162h-7.342H267.244z"/>
			<path fill="#414042" d="M384.948,175.03h-7.344v-71.715c0-3.325-2.705-6.029-6.027-6.029h-99.238     c-3.324,0-6.028,2.704-6.028,6.029v71.715h-7.345c-0.515,0-0.933,0.418-0.933,0.934v5.096c0,3.322,3.049,6.025,6.797,6.025     h114.254c3.746,0,6.795-2.703,6.795-6.025v-5.096C385.88,175.448,385.464,175.03,384.948,175.03z M384.017,181.058     c0,2.295-2.211,4.162-4.932,4.162H264.832c-2.719,0-4.931-1.867-4.931-4.162v-4.162h7.344h109.43h7.342V181.058L384.017,181.058z      M268.177,103.315c0-2.299,1.868-4.165,4.163-4.165h99.238c2.295,0,4.162,1.866,4.162,4.165v71.715H268.177V103.315z"/>
			<rect x="275.661" y="105.747" fill="#ACF0F2" width="92.594" height="61.092"/>
			<path fill="#414042" d="M369.19,103.882h-94.462c-0.516,0-0.933,0.418-0.933,0.932v62.957c0,0.517,0.417,0.934,0.933,0.934     h94.462c0.514,0,0.932-0.417,0.932-0.934v-62.957C370.12,104.3,369.702,103.882,369.19,103.882z M368.255,166.839h-92.594     v-61.092h92.594V166.839z"/>
		</g>
		<g>
			<path fill="#414042" d="M328.186,181.991h-12.454c-0.515,0-0.931-0.417-0.931-0.934c0-0.515,0.417-0.933,0.931-0.933h12.454     c0.516,0,0.934,0.418,0.934,0.933C329.117,181.574,328.699,181.991,328.186,181.991z"/>
		</g>
		<g opacity="0.2">
			<path fill="#FFFFFF" d="M291.428,159.013c-0.238,0-0.478-0.09-0.659-0.272c-0.365-0.363-0.365-0.954,0-1.317l42.361-42.363     c0.365-0.362,0.957-0.363,1.32,0s0.363,0.955,0,1.317l-42.364,42.363C291.905,158.923,291.667,159.013,291.428,159.013z"/>
		</g>
		<g opacity="0.2">
			<path fill="#FFFFFF" d="M307.729,154.556c-0.238,0-0.478-0.09-0.659-0.272c-0.364-0.364-0.364-0.954,0-1.317l16.998-17.002     c0.365-0.363,0.955-0.363,1.318,0c0.365,0.365,0.365,0.955,0,1.319l-16.999,17C308.207,154.466,307.968,154.556,307.729,154.556z     "/>
		</g>
		<g opacity="0.2">
			<path fill="#FFFFFF" d="M330.934,131.289c-0.238,0-0.477-0.092-0.66-0.274c-0.363-0.361-0.363-0.953,0-1.315l4.698-4.696     c0.361-0.365,0.953-0.365,1.316,0c0.365,0.363,0.365,0.954,0,1.318l-4.693,4.693     C331.411,131.197,331.171,131.289,330.934,131.289z"/>
		</g>
	</g>
</g>
<g>
	<g>
		<rect x="84.076" y="244.91" fill="#414042" width="93.371" height="2.979"/>
	</g>
	<g>
		<rect x="167.297" y="244.91" fill="#414042" width="387.141" height="2.979"/>
	</g>
	<g>
		<rect x="71.873" y="244.91" fill="#414042" width="9.272" height="2.979"/>
	</g>
</g>
<g>
	<g>
		<g>
			<g>
				<path fill="#FFFFFF" d="M162.747,200.028c-6.534,0-11.83,5.296-11.83,11.829v7.527h6.453v-7.527c0-2.97,2.408-5.377,5.377-5.377      s5.378,2.407,5.378,5.377v7.527h6.453v-7.527C174.578,205.324,169.281,200.028,162.747,200.028z"/>
			</g>
		</g>
		<g>
			<path fill="#FFFFFF" d="M178.878,241.97c0,1.781-1.445,3.226-3.226,3.226h-25.811c-1.781,0-3.225-1.445-3.225-3.226v-19.357     c0-1.781,1.445-3.228,3.225-3.228h25.811c1.782,0,3.226,1.446,3.226,3.228V241.97z"/>
		</g>
		<g>
			<g>
				<polygon fill="#F28C13" points="162.747,233.365 156.295,233.365 162.747,226.913 169.199,226.913     "/>
			</g>
			<g>
				<polygon fill="#F28C13" points="178.878,233.365 167.049,233.365 173.502,226.913 178.878,226.913     "/>
			</g>
			<g>
				<polygon fill="#F28C13" points="146.617,226.913 158.446,226.913 151.993,233.365 146.617,233.365     "/>
			</g>
		</g>
		<g>
			<path fill="#414042" d="M175.652,246.271h-25.811c-2.371,0-4.301-1.93-4.301-4.302v-19.357c0-2.372,1.931-4.302,4.301-4.302     h25.811c2.372,0,4.301,1.931,4.301,4.302v19.357C179.954,244.342,178.024,246.271,175.652,246.271z M149.842,220.461     c-1.186,0-2.15,0.966-2.15,2.151v19.357c0,1.185,0.965,2.149,2.15,2.149h25.811c1.186,0,2.15-0.965,2.15-2.149v-19.357     c0-1.186-0.964-2.151-2.15-2.151H149.842L149.842,220.461z"/>
		</g>
		<g>
			<path fill="#414042" d="M169.199,219.385h-2.15v-7.527c0-2.372-1.931-4.301-4.302-4.301s-4.301,1.929-4.301,4.301v7.527h-2.151     v-7.527c0-3.558,2.894-6.452,6.453-6.452s6.452,2.894,6.452,6.452v7.527H169.199z"/>
		</g>
		<g>
			<path fill="#414042" d="M175.652,219.385h-2.15v-7.527c0-5.929-4.825-10.754-10.754-10.754c-5.929,0-10.754,4.825-10.754,10.754     v7.527h-2.15v-7.527c0-7.117,5.789-12.905,12.904-12.905s12.905,5.79,12.905,12.905V219.385z"/>
		</g>
	</g>
</g>
<g>
	<g>
		<g>
			<rect x="443.978" y="184.687" fill="#F28C13" width="40.794" height="46.793"/>
		</g>
		<g>
			<rect x="443.978" y="231.479" fill="#FFFFFF" width="40.794" height="13.199"/>
		</g>
	</g>
	<g>
		<path fill="#414042" d="M484.771,245.878h-40.794c-0.663,0-1.2-0.537-1.2-1.2v-59.991c0-0.664,0.537-1.199,1.2-1.199h40.794    c0.663,0,1.2,0.535,1.2,1.199v59.992C485.972,245.341,485.435,245.878,484.771,245.878z M445.177,243.479h38.396v-57.594h-38.396    V243.479z"/>
	</g>
	<g>
		<rect x="453.577" y="203.884" fill="#ACF0F2" width="64.791" height="40.794"/>
	</g>
	<g>
		<rect x="453.577" y="236.278" fill="#67DDE0" width="64.791" height="8.398"/>
	</g>
	<g>
		<path fill="#414042" d="M518.368,245.878h-64.791v-2.398h63.591v-39.596h2.399v40.795    C519.567,245.341,519.03,245.878,518.368,245.878z"/>
	</g>
	<g>
		<path fill="#414042" d="M476.374,182.286h-2.399c0-5.292-4.307-9.6-9.6-9.6c-5.292,0-9.6,4.308-9.6,9.6h-2.398    c0-6.615,5.383-11.998,11.998-11.998C470.991,170.288,476.374,175.671,476.374,182.286z"/>
	</g>
	<g>
		<rect x="452.376" y="182.286" fill="#414042" width="2.398" height="15.599"/>
	</g>
	<g>
		<rect x="473.974" y="182.286" fill="#414042" width="2.399" height="15.599"/>
	</g>
	<g>
		<rect x="473.974" y="209.883" fill="#414042" width="2.399" height="9.599"/>
	</g>
	<g>
		<rect x="495.57" y="209.883" fill="#414042" width="2.399" height="9.599"/>
	</g>
	<g>
		<path fill="#414042" d="M485.972,231.479c-6.615,0-11.998-5.383-11.998-11.998h2.399c0,5.293,4.306,9.6,9.599,9.6    s9.599-4.307,9.599-9.6h2.399C497.97,226.097,492.587,231.479,485.972,231.479z"/>
	</g>
	<g>
		<rect x="445.177" y="229.08" fill="#414042" width="8.399" height="2.399"/>
	</g>
	<g>
		<rect x="490.771" y="195.483" fill="#414042" width="2.4" height="2.4"/>
	</g>
	<g>
		<rect x="495.57" y="195.483" fill="#414042" width="2.399" height="2.4"/>
	</g>
	<g>
		<rect x="500.37" y="195.483" fill="#414042" width="2.399" height="2.4"/>
	</g>
</g>
<g>
	<g>
		<g>
			<path fill="#FFB957" d="M295.429,116.899h43.581c1.568,0,2.843,1.272,2.843,2.842v22.737c0,1.568-1.272,2.843-2.843,2.843     h-43.581c-1.568,0-2.842-1.273-2.842-2.843v-22.737C292.586,118.172,293.86,116.899,295.429,116.899z"/>
		</g>
		<g>
			<path fill="#414042" d="M339.01,146.269h-43.581c-2.089,0-3.789-1.701-3.789-3.79l0-22.737c0-2.089,1.7-3.789,3.789-3.789h43.581     c2.09,0,3.789,1.7,3.789,3.789v22.737C342.799,144.568,341.1,146.269,339.01,146.269z M295.429,117.847     c-1.045,0-1.896,0.85-1.896,1.895v22.737c0,1.045,0.85,1.896,1.895,1.896h43.581c1.045,0,1.896-0.85,1.896-1.896v-22.737     c0-1.043-0.851-1.895-1.896-1.895H295.429L295.429,117.847z"/>
		</g>
		<g>
			<path fill="#FFFFFF" d="M304.903,128.269h43.581c1.568,0,2.843,1.273,2.843,2.842v22.737c0,1.57-1.273,2.844-2.843,2.844h-43.581     c-1.568,0-2.842-1.273-2.842-2.844v-22.737C302.062,129.542,303.334,128.269,304.903,128.269z"/>
		</g>
		<g>
			<path fill="#414042" d="M348.484,157.639h-43.581c-2.089,0-3.789-1.701-3.789-3.791v-22.737c0-2.089,1.7-3.789,3.789-3.789     h43.581c2.09,0,3.79,1.7,3.79,3.789v22.737C352.274,155.938,350.574,157.639,348.484,157.639z M304.903,129.216     c-1.045,0-1.896,0.849-1.896,1.895v22.737c0,1.046,0.85,1.896,1.896,1.896h43.581c1.046,0,1.896-0.851,1.896-1.896v-22.737     c0-1.045-0.85-1.895-1.896-1.895H304.903z"/>
		</g>
		<g>
			<circle fill="#F28C13" cx="321.957" cy="142.479" r="6.632"/>
		</g>
		<g>
			<circle fill="#67DDE0" cx="331.43" cy="142.479" r="6.632"/>
		</g>
		<g>
			<rect x="293.534" y="119.742" fill="#414042" width="47.371" height="1.896"/>
		</g>
		<g>
			<rect x="293.534" y="127.322" fill="#414042" width="10.421" height="1.895"/>
		</g>
		<g>
			<rect x="293.534" y="121.637" fill="#67DDE0" width="47.371" height="5.685"/>
		</g>
	</g>
	<g>
		<rect x="297.323" y="133.006" fill="#414042" width="3.79" height="1.895"/>
	</g>
	<g>
		<rect x="309.64" y="141.533" fill="#414042" width="1.896" height="1.895"/>
	</g>
	<g>
		<rect x="341.853" y="141.533" fill="#414042" width="1.895" height="1.895"/>
	</g>
	<g>
		<rect x="327.642" y="123.532" fill="#414042" width="9.474" height="1.895"/>
	</g>
	<g>
		<rect x="321.956" y="123.532" fill="#414042" width="3.79" height="1.895"/>
	</g>
</g>
<g opacity="0.5">
	<g>
		<g id="XMLID_114_">
			<g id="XMLID_177_">
				<rect x="188.242" y="161.143" fill="#414042" width="6.11" height="2.191"/>
			</g>
			<g id="XMLID_176_">
				<rect x="190.202" y="159.184" fill="#414042" width="2.191" height="6.11"/>
			</g>
		</g>
		<g>
			<path fill="#414042" d="M203.945,175.982h-4.381v-2.191h3.286v-3.7h2.19v4.381h-1.095V175.982z M195.183,175.982h-4.381v-2.191     h4.381V175.982z M186.42,175.982h-4.381v-2.191h4.381V175.982z M179.745,173.894h-2.191v-4.382h2.191V173.894z M205.04,165.709     h-2.19v-4.383h2.19V165.709z M179.745,165.131h-2.191v-4.381h2.191V165.131z M205.04,156.945h-2.19v-4.381h2.19V156.945z      M179.745,156.367h-2.191v-4.381h2.191V156.367z M202.539,150.685h-4.381v-2.191h4.381V150.685z M193.776,150.685h-4.381v-2.191     h4.381V150.685z M185.014,150.685h-4.381v-2.191h4.381V150.685z"/>
		</g>
	</g>
	<g id="XMLID_957_">
		<g id="XMLID_961_">
			<rect x="153.753" y="119.509" fill="#414042" width="2.707" height="2.191"/>
		</g>
		<g id="XMLID_960_">
			<rect x="160.758" y="119.509" fill="#414042" width="2.707" height="2.191"/>
		</g>
		<g id="XMLID_959_">
			<rect x="157.513" y="122.754" fill="#414042" width="2.19" height="2.707"/>
		</g>
		<g id="XMLID_958_">
			<rect x="157.513" y="115.749" fill="#414042" width="2.19" height="2.707"/>
		</g>
	</g>
	<g id="XMLID_87_">
		<g id="XMLID_153_">
			<rect x="116.938" y="223.786" fill="#414042" width="2.707" height="2.189"/>
		</g>
		<g id="XMLID_150_">
			<rect x="123.942" y="223.786" fill="#414042" width="2.707" height="2.189"/>
		</g>
		<g id="XMLID_146_">
			<rect x="120.698" y="227.03" fill="#414042" width="2.19" height="2.707"/>
		</g>
		<g id="XMLID_92_">
			<rect x="120.698" y="220.024" fill="#414042" width="2.19" height="2.707"/>
		</g>
	</g>
	<g id="XMLID_155_">
		<g id="XMLID_180_">
			<rect x="511.498" y="179.031" fill="#414042" width="2.707" height="2.189"/>
		</g>
		<g id="XMLID_179_">
			<rect x="518.503" y="179.031" fill="#414042" width="2.707" height="2.189"/>
		</g>
		<g id="XMLID_178_">
			<rect x="515.258" y="182.274" fill="#414042" width="2.189" height="2.707"/>
		</g>
		<g id="XMLID_156_">
			<rect x="515.258" y="175.27" fill="#414042" width="2.189" height="2.707"/>
		</g>
	</g>
	<g id="XMLID_143_">
		<g id="XMLID_237_">
			<rect x="480.815" y="102.786" fill="#414042" width="2.874" height="2.191"/>
		</g>
		<g id="XMLID_236_">
			<rect x="488.253" y="102.786" fill="#414042" width="2.874" height="2.191"/>
		</g>
		<g id="XMLID_234_">
			<rect x="484.876" y="106.164" fill="#414042" width="2.19" height="2.874"/>
		</g>
		<g id="XMLID_192_">
			<rect x="484.876" y="98.726" fill="#414042" width="2.19" height="2.874"/>
		</g>
	</g>
	<g id="XMLID_202_">
		<g id="XMLID_209_">
			<rect x="216.771" y="144.027" fill="#414042" width="2.706" height="2.19"/>
		</g>
		<g id="XMLID_207_">
			<rect x="223.775" y="144.027" fill="#414042" width="2.707" height="2.19"/>
		</g>
		<g id="XMLID_206_">
			<rect x="220.531" y="147.272" fill="#414042" width="2.19" height="2.707"/>
		</g>
		<g id="XMLID_203_">
			<rect x="220.531" y="140.268" fill="#414042" width="2.19" height="2.707"/>
		</g>
	</g>
	<g id="XMLID_1_">
		<g id="XMLID_5_">
			<rect x="314.174" y="75.795" fill="#414042" width="5.233" height="4.235"/>
		</g>
		<g id="XMLID_4_">
			<rect x="327.721" y="75.795" fill="#414042" width="5.234" height="4.235"/>
		</g>
		<g id="XMLID_3_">
			<rect x="321.445" y="82.07" fill="#414042" width="4.235" height="5.235"/>
		</g>
		<g id="XMLID_2_">
			<rect x="321.445" y="68.524" fill="#414042" width="4.235" height="5.235"/>
		</g>
	</g>
	<g id="XMLID_210_">
		<g id="XMLID_232_">
			<rect x="252.301" y="85.178" fill="#414042" width="2.707" height="2.19"/>
		</g>
		<g id="XMLID_231_">
			<rect x="259.306" y="85.178" fill="#414042" width="2.707" height="2.19"/>
		</g>
		<g id="XMLID_213_">
			<rect x="256.062" y="88.422" fill="#414042" width="2.19" height="2.707"/>
		</g>
		<g id="XMLID_212_">
			<rect x="256.062" y="81.417" fill="#414042" width="2.19" height="2.707"/>
		</g>
	</g>
	<g>
		<rect x="349.705" y="67.429" fill="#414042" width="43.157" height="2.19"/>
	</g>
	<g>
		<rect x="459.272" y="156.907" fill="#414042" width="43.155" height="2.19"/>
	</g>
	<g>
		<rect x="449.777" y="156.907" fill="#414042" width="7.317" height="2.19"/>
	</g>
	<g>
		<rect x="504.605" y="156.907" fill="#414042" width="6.893" height="2.19"/>
	</g>
	<g>
		<rect x="375.934" y="82.471" fill="#414042" width="43.155" height="2.191"/>
	</g>
	<g>
		<rect x="421.266" y="82.471" fill="#414042" width="6.893" height="2.191"/>
	</g>
	<g>
		<rect x="109.184" y="175.8" fill="#414042" width="43.155" height="2.191"/>
	</g>
	<g>
		<g>
			<path fill="#414042" d="M482.447,136.961h-18.988v-18.986h18.988V136.961z M465.648,134.77h14.607v-14.605h-14.607V134.77     L465.648,134.77z"/>
		</g>
		<g>
			
				<rect x="471.854" y="115.585" transform="matrix(-0.7073 -0.7069 0.7069 -0.7073 717.3792 551.9404)" fill="#414042" width="2.19" height="23.754"/>
		</g>
		<g>
			
				<rect x="461.06" y="126.375" transform="matrix(-0.7071 -0.7071 0.7071 -0.7071 717.2304 552.0148)" fill="#414042" width="23.754" height="2.19"/>
		</g>
	</g>
	<g>
		<g>
			<path fill="#414042" d="M508.052,136.961h-18.986v-18.986h18.986V136.961z M491.256,134.77h14.604v-14.605h-14.604V134.77z"/>
		</g>
		<g>
			
				<rect x="497.461" y="115.586" transform="matrix(-0.7071 -0.7071 0.7071 -0.7071 760.9583 570.124)" fill="#414042" width="2.189" height="23.754"/>
		</g>
		<g>
			
				<rect x="486.68" y="126.368" transform="matrix(-0.7071 -0.7071 0.7071 -0.7071 760.9707 570.1172)" fill="#414042" width="23.752" height="2.19"/>
		</g>
	</g>
	<path fill="#4D5152" d="M205.482,100.768c0-0.28,0.025-0.554,0.042-0.829c-6.262-0.369-11.247-5.565-11.247-11.918   c0-6.59,5.362-11.952,11.953-11.952c6.382,0,11.598,5.033,11.922,11.336c0.243-0.013,0.484-0.037,0.73-0.037   c0.257,0,0.509,0.024,0.763,0.039c-0.324-7.127-6.207-12.832-13.415-12.832c-7.415,0-13.447,6.033-13.447,13.446   c0,7.173,5.651,13.036,12.733,13.411C205.504,101.21,205.482,100.992,205.482,100.768z"/>
	<g>
		<path fill="#4D5152" d="M218.929,114.168c-7.415,0-13.447-6.033-13.447-13.447c0-7.414,6.033-13.447,13.447-13.447    c7.415,0,13.446,6.033,13.446,13.447C232.376,108.135,226.344,114.168,218.929,114.168z M218.929,88.769    c-6.591,0-11.953,5.362-11.953,11.953c0,6.59,5.362,11.953,11.953,11.953c6.59,0,11.953-5.362,11.953-11.953    C230.882,94.13,225.52,88.769,218.929,88.769z"/>
	</g>
	<g>
		<g>
			<path fill="#4D5152" d="M218.929,107.444c-2.06,0-3.735-1.675-3.735-3.735h1.494c0,1.235,1.005,2.241,2.241,2.241     s2.241-1.005,2.241-2.241c0-1.003-0.8-1.446-2.213-2.141l-0.715-0.354c-1.428-0.703-3.048-1.498-3.048-3.482     c0-2.06,1.676-3.735,3.736-3.735c2.059,0,3.735,1.675,3.735,3.735h-1.494c0-1.236-1.005-2.241-2.241-2.241     c-1.236,0-2.241,1.005-2.241,2.241c0,1.003,0.8,1.446,2.212,2.141l0.716,0.354c1.429,0.702,3.048,1.497,3.048,3.481     C222.665,105.769,220.989,107.444,218.929,107.444z"/>
		</g>
		<g>
			<rect x="218.182" y="92.504" fill="#4D5152" width="1.494" height="2.241"/>
		</g>
		<g>
			<rect x="218.182" y="106.698" fill="#4D5152" width="1.494" height="2.241"/>
		</g>
	</g>
	<g>
		<path fill="#4D5152" d="M230.135,87.274h-1.495v-4.482c0-2.472-2.01-4.482-4.482-4.482h-4.482v-1.494h4.482    c3.295,0,5.977,2.681,5.977,5.977V87.274L230.135,87.274z"/>
	</g>
	<g>
		<path fill="#4D5152" d="M205.482,111.927H201c-3.295,0-5.977-2.68-5.977-5.976v-4.482h1.495v4.482c0,2.471,2.01,4.482,4.482,4.482    h4.482V111.927z"/>
	</g>
</g>
</svg>
